# xmcd
#
# Track frame offsets: 
#        150
#        14275
#        30931
#        47403
#        63302
#        77145
#        91512
#        106136
#        116184
#        129526
#        144938
#        156115
#        180735
#        205419
#        217587
#        272276
#
# Disc length: 3861 seconds
#
# Revision: 0
# Processed by: cddbd v1.5.2PL0 Copyright (c) Steve Scherf et al.
# Submitted via: ExactAudioCopy v1.3
#
DISCID=c20f1310
DTITLE=Profeti della Quinta - Amor, Fortuna et Morte
DYEAR=2019
DGENRE=Classical
TTITLE0=de Rore: Datemi pace
TTITLE1=de Rore: Mia benigna fortuna
TTITLE2=de Rore: Schiet'arbuscel
TTITLE3=de Rore: Amor, ben mi credevo
TTITLE4=de Rore: Anchor che col partire
TTITLE5=de Rore: Amor, ben mi credevo
TTITLE6=de Rore: Sicut cervus desiderat
TTITLE7=Luzzaschi: Tu ribello d'Amor
TTITLE8=Luzzaschi: Ahi, cruda sorte mia
TTITLE9=Gesualdo: Ser la mia morte brami
TTITLE10=Gesualdo: Occhi, del mio cor vita
TTITLE11=Lacorcia: Ahi, tu piangi
TTITLE12=Monteverdi: Lamento della Ninfa
TTITLE13=Kapsberger: Toccata sesta
TTITLE14=Monteverdi: Lamento d'Arianna
TTITLE15=Monteverdi: Zefiro torna e'l bel tempo rimena
EXTD=
EXTT0=
EXTT1=
EXTT2=
EXTT3=
EXTT4=
EXTT5=
EXTT6=
EXTT7=
EXTT8=
EXTT9=
EXTT10=
EXTT11=
EXTT12=
EXTT13=
EXTT14=
EXTT15=
PLAYORDER=
